<svg width="438" height="54" viewBox="0 0 438 54" fill="none" xmlns="http://www.w3.org/2000/svg">
<g clip-path="url(#clip0_1019_20909)">
<g clip-path="url(#clip1_1019_20909)">
<path d="M21.7419 32.1029C21.7419 39.069 15.3303 41.6666 9.95947 41.6666C4.58863 41.6666 0.0600586 38.7428 0.0600586 38.7428L3.24756 32.4C3.24756 32.4 6.7555 34.9771 10.2012 34.9771C11.6385 34.9771 12.9536 34.0924 12.9536 33.0448C12.9536 29.0992 1.94421 32.5187 1.94421 23.5804C1.94421 16.488 8.32909 14.364 13.0023 14.364C15.6313 14.364 18.9968 15.0347 20.9696 15.9993L18.0234 21.8463C18.0234 21.8463 15.4402 20.5573 13.2916 20.5573C11.4496 20.5573 10.5879 21.484 10.5879 22.3913C10.5879 25.4026 21.7423 23.0982 21.7419 32.1029Z" fill="#544A26"/>
<path d="M55.0615 24.146V40.733H46.2237V27.4587C46.2237 23.3645 44.8051 21.9037 42.2657 21.9037C38.589 21.9037 37.7758 24.814 37.7758 26.9061V40.733H28.9379V0.702H37.7758V18.4129C37.7758 18.4129 39.9312 14.7686 45.5974 14.7686C50.6425 14.7686 55.0615 17.6454 55.0615 24.146Z" fill="#544A26"/>
<path d="M63.0511 40.7128V15.2928H71.8889V40.7128H63.0511Z" fill="#544A26"/>
<path d="M73.6874 20.3363C73.6874 17.5454 75.8799 15.282 78.5851 15.282C81.2895 15.282 83.4821 17.5454 83.4821 20.3363C83.4821 23.1278 81.2895 25.3906 78.5851 25.3906C75.8799 25.3906 73.6874 23.1278 73.6874 20.3363Z" fill="#A0A845"/>
<path d="M89.5065 5.54025C89.5065 2.74927 91.699 0.486 94.4035 0.486C97.1087 0.486 99.3012 2.74927 99.3012 5.54025C99.3012 8.33179 97.1087 10.5951 94.4035 10.5951C91.699 10.5951 89.5065 8.33178 89.5065 5.54025Z" fill="#A0A845"/>
<path d="M89.9601 40.721V15.3016H98.7984V40.721H89.9601Z" fill="#544A26"/>
<path d="M127.187 32.1029C127.187 39.069 120.776 41.6666 115.405 41.6666C110.034 41.6666 105.505 38.7428 105.505 38.7428L108.693 32.4C108.693 32.4 112.201 34.9771 115.646 34.9771C117.084 34.9771 118.399 34.0924 118.399 33.0448C118.399 29.0992 107.39 32.5187 107.39 23.5804C107.39 16.488 113.774 14.364 118.448 14.364C121.077 14.364 124.442 15.0347 126.415 15.9993L123.469 21.8463C123.469 21.8463 120.885 20.5573 118.737 20.5573C116.895 20.5573 116.033 21.484 116.033 22.3913C116.033 25.4026 127.188 23.0982 127.187 32.1029Z" fill="#544A26"/>
<path d="M149.118 34.3263V41.6602C143.944 41.6602 135.822 40.5688 135.822 31.7201V23.0918H133.033V15.2984H135.822V7.668H144.66V30.1696C144.66 31.6839 145.481 34.3263 149.118 34.3263Z" fill="#544A26"/>
<path d="M146.342 20.3418C146.342 17.5509 148.535 15.2876 151.24 15.2876C153.944 15.2876 156.137 17.5509 156.137 20.3418C156.137 23.1334 153.944 25.3962 151.24 25.3962C148.535 25.3962 146.342 23.1334 146.342 20.3418Z" fill="#A0A845"/>
<path d="M162.104 5.54025C162.104 2.74927 164.297 0.486 167.001 0.486C169.706 0.486 171.899 2.74927 171.899 5.54025C171.899 8.33179 169.706 10.5951 167.001 10.5951C164.297 10.5951 162.104 8.33178 162.104 5.54025Z" fill="#A0A845"/>
<path d="M162.558 40.721V15.3016H171.396V40.721H162.558Z" fill="#544A26"/>
<path d="M223.311 15.3188V39.939C223.311 48.3578 218.072 53.5217 208.812 53.5217C199.034 53.5217 194.76 46.6096 194.76 43.81H204.611C204.611 43.81 205.184 46.3369 208.763 46.3369C212.796 46.3369 214.472 43.4363 214.472 40.7377V38.5349C212.351 40.4909 209.625 41.6683 206.651 41.6683C199.89 41.6683 194.409 35.5922 194.409 28.0969C194.409 20.6015 199.89 14.526 206.651 14.526C209.625 14.526 212.351 15.7034 214.472 17.6594V15.3188L223.311 15.3188ZM214.472 28.0974C214.472 24.8717 212.181 22.2562 209.088 22.2562C205.994 22.2562 203.487 24.8717 203.487 28.0974C203.487 31.3236 205.994 33.9391 209.088 33.9391C212.181 33.9391 214.472 31.3231 214.472 28.0974Z" fill="#544A26"/>
<path d="M250.59 15.2643H259.428V40.7383H250.59V38.5349C248.469 40.4914 245.742 41.6688 242.768 41.6688C236.007 41.6688 230.526 35.5927 230.526 28.0974C230.526 20.6021 236.007 14.526 242.768 14.526C245.742 14.526 248.469 15.7039 250.59 17.6594V15.2643ZM250.59 28.0974C250.59 24.8717 248.299 22.2563 245.206 22.2563C242.112 22.2563 239.605 24.8717 239.605 28.0974C239.605 31.3236 242.112 33.9391 245.206 33.9391C248.299 33.9391 250.59 31.3231 250.59 28.0974Z" fill="#544A26"/>
<path d="M267.778 40.7128V15.2928H276.615V40.7128H267.778Z" fill="#544A26"/>
<path d="M278.414 20.3363C278.414 17.5454 280.606 15.282 283.312 15.282C286.016 15.282 288.209 17.5454 288.209 20.3363C288.209 23.1278 286.016 25.3906 283.312 25.3906C280.606 25.3906 278.414 23.1278 278.414 20.3363Z" fill="#A0A845"/>
<path d="M309.454 34.3263V41.6602C304.28 41.6602 296.158 40.5688 296.158 31.7201V23.0918H293.369V15.2984H296.158V7.668H304.996V30.1696C304.996 31.6839 305.817 34.3263 309.454 34.3263Z" fill="#544A26"/>
<path d="M306.678 20.3418C306.678 17.5509 308.87 15.2876 311.576 15.2876C314.28 15.2876 316.473 17.5509 316.473 20.3418C316.473 23.1334 314.28 25.3962 311.576 25.3962C308.87 25.3962 306.678 23.1334 306.678 20.3418Z" fill="#A0A845"/>
<path d="M341.855 15.2643H350.694V40.7383H341.855V38.5349C339.735 40.4914 337.008 41.6688 334.033 41.6688C327.273 41.6688 321.792 35.5927 321.792 28.0974C321.792 20.6021 327.273 14.526 334.033 14.526C337.008 14.526 339.735 15.7039 341.855 17.6594V15.2643ZM341.855 28.0974C341.855 24.8717 339.565 22.2563 336.471 22.2563C333.378 22.2563 330.87 24.8717 330.87 28.0974C330.87 31.3236 333.378 33.9391 336.471 33.9391C339.565 33.9391 341.855 31.3231 341.855 28.0974Z" fill="#544A26"/>
<path d="M385.085 15.282V31.6924C385.085 41.1254 375.388 41.6433 371.902 41.6433C368.416 41.6433 358.719 41.1254 358.719 31.6924V15.282H367.557V30.1533C367.557 31.4542 368.055 34.3094 371.902 34.3094C375.748 34.3094 376.247 31.4542 376.247 30.1533V15.282H385.085Z" fill="#544A26"/>
<path d="M393.051 40.733V0.702H401.889V40.733H393.051Z" fill="#544A26"/>
<path d="M429.113 15.2643H437.952V40.7383H429.113V38.5349C426.993 40.4914 424.266 41.6688 421.291 41.6688C414.53 41.6688 409.05 35.5927 409.05 28.0974C409.05 20.6021 414.53 14.526 421.291 14.526C424.266 14.526 426.993 15.7039 429.113 17.6594V15.2643ZM429.113 28.0974C429.113 24.8717 426.822 22.2563 423.729 22.2563C420.636 22.2563 418.128 24.8717 418.128 28.0974C418.128 31.3236 420.636 33.9391 423.729 33.9391C426.822 33.9391 429.113 31.3231 429.113 28.0974Z" fill="#544A26"/>
</g>
</g>
<defs>
<clipPath id="clip0_1019_20909">
<rect width="438" height="54" fill="white"/>
</clipPath>
<clipPath id="clip1_1019_20909">
<rect width="438" height="54" fill="white"/>
</clipPath>
</defs>
</svg>
